<svg width="500" height="500" viewBox="0 0 500 500" fill="none" xmlns="http://www.w3.org/2000/svg">
<path d="M500 250C500 388.071 388.071 500 250 500C111.929 500 0.000366211 388.071 0.000366211 250C0.000366211 111.929 111.929 -6.10352e-05 250 -6.10352e-05C388.071 -6.10352e-05 500 111.929 500 250Z" fill="#F97316"/>
<path d="M226.058 455.816L225.508 459.163L205.807 466.628L206.377 463.155L222.61 457.184L222.665 456.849L209.193 446.001L209.777 442.445L226.058 455.816Z" fill="black"/>
<path d="M197.845 432.819L171.604 464.106L168.715 463.122L194.956 431.835L197.845 432.819Z" fill="black"/>
<path d="M163.925 430.682L146.632 431.053L146.471 431.352L155.687 445.99L153.979 449.163L142.927 431.227L144.535 428.24L165.592 427.583L163.925 430.682Z" fill="black"/>
<path d="M84.6519 394.982L84.8821 395.231L100.291 389.476L93.3435 404.385L93.5738 404.634L111.352 388.2L113.568 390.598L91.8356 410.686L88.7273 407.324L94.7772 394.63L94.6045 394.443L81.4747 399.478L78.4816 396.24L100.214 376.151L102.43 378.548L84.6519 394.982Z" fill="black"/>
<path d="M82.7244 351.563L77.0417 358.283L82.7399 366.968L91.1669 364.432L93.1904 367.516L63.468 376.163L60.8864 372.228L80.6544 348.408L82.7244 351.563ZM65.251 372.002L65.4603 372.321L79.6867 367.957L74.9189 360.689L65.251 372.002Z" fill="black"/>
<path d="M47.8567 349.533L44.5223 341.967C43.0631 338.656 43.1125 335.685 44.6705 333.052C46.2285 330.419 49.2449 328.117 53.7197 326.145C58.1944 324.172 61.929 323.5 64.9234 324.126C67.9178 324.752 70.1446 326.721 71.6037 330.032L74.9382 337.597L47.8567 349.533ZM68.8398 331.435C67.8822 329.262 66.414 327.963 64.4349 327.538C62.4445 327.087 60.0784 327.466 57.3367 328.674L53.1464 330.521C50.4047 331.729 48.5288 333.22 47.5187 334.994C46.4973 336.741 46.4654 338.701 47.423 340.874L49.2527 345.026L70.6695 335.587L68.8398 331.435Z" fill="black"/>
<path d="M63.011 307.769L34.3333 315.081L29.8293 297.414L32.8285 296.649L36.4527 310.865L46.1078 308.403L42.6093 294.681L45.6086 293.916L49.1071 307.639L59.1319 305.083L55.5078 290.867L58.507 290.103L63.011 307.769Z" fill="black"/>
<path d="M25 241.562L25.8167 231.546C26.0234 229.011 26.8756 227.081 28.3732 225.756C29.8709 224.432 31.7748 223.864 34.085 224.053C35.8599 224.197 37.2188 224.748 38.1618 225.704C39.1071 226.632 39.736 227.789 40.0483 229.176L40.1751 229.186C40.705 227.556 41.563 226.251 42.7491 225.27C43.9069 224.286 45.5142 223.878 47.5708 224.046C48.7541 224.143 49.8508 224.431 50.8611 224.91C51.8713 225.389 52.7269 226.026 53.4278 226.821C54.1311 227.587 54.6679 228.482 55.0382 229.505C55.3827 230.497 55.509 231.557 55.4171 232.684L54.4971 243.967L25 241.562ZM52.2461 233.489C52.3793 231.854 52.1176 230.543 51.4609 229.553C50.8042 228.564 49.7152 228.007 48.1938 227.883L46.4612 227.742C44.968 227.62 43.8173 227.994 43.009 228.864C42.1725 229.732 41.6877 230.983 41.5544 232.617L41.01 239.294L51.7016 240.165L52.2461 233.489ZM38.5903 232.971C38.712 231.477 38.4834 230.282 37.9043 229.384C37.2971 228.483 36.3173 227.978 34.965 227.868L33.3169 227.734C31.9646 227.623 30.9159 227.963 30.1708 228.753C29.4258 229.543 28.9923 230.685 28.8706 232.178L28.3744 238.263L38.0941 239.056L38.5903 232.971Z" fill="black"/>
<path d="M59.9826 204.856L48.7172 202.017L28.7878 207.533L29.7824 203.586L38.3013 201.36L45.7192 199.512L45.7606 199.348L40.1248 194.124L33.678 188.127L34.6519 184.262L49.5875 198.563L60.8529 201.402L59.9826 204.856Z" fill="black"/>
<path d="M86.4369 144.428C84.9856 146.653 83.3943 148.214 81.6629 149.11C79.9078 149.99 78.0899 150.475 76.2092 150.565L75.8461 147.24C77.6866 147.057 79.2503 146.625 80.537 145.946C81.8392 145.243 82.9766 144.145 83.9493 142.654C85.1227 140.854 85.6038 139.211 85.3927 137.723C85.1816 136.236 84.3302 135.006 82.8385 134.033C81.631 133.246 80.4718 132.979 79.3611 133.233C78.2267 133.472 76.9617 134.351 75.5659 135.871L73.2978 138.34C72.2972 139.409 71.3137 140.218 70.3471 140.769C69.396 141.296 68.4623 141.615 67.5462 141.727C66.6063 141.823 65.7118 141.745 64.8625 141.495C63.9895 141.23 63.1624 140.842 62.381 140.333C60.108 138.851 58.8778 136.985 58.6903 134.737C58.5028 132.489 59.235 130.098 60.8871 127.565C62.184 125.576 63.604 124.123 65.147 123.205C66.7055 122.264 68.3586 121.773 70.1066 121.732L70.5515 125.008C69.204 125.108 67.9296 125.458 66.7283 126.059C65.5271 126.659 64.4246 127.729 63.4211 129.268C62.3249 130.949 61.8386 132.471 61.9622 133.834C62.0858 135.197 62.8579 136.341 64.2785 137.268C65.3914 137.993 66.5191 138.256 67.6617 138.056C68.7961 137.817 70.0885 136.922 71.5388 135.371L73.7375 133.008C74.738 131.94 75.7215 131.13 76.6881 130.579C77.6547 130.028 78.5961 129.697 79.5122 129.586C80.4438 129.451 81.3461 129.517 82.2191 129.782C83.092 130.048 83.931 130.443 84.736 130.968C87.0327 132.465 88.3381 134.397 88.6522 136.761C88.9818 139.102 88.2434 141.657 86.4369 144.428Z" fill="black"/>
<path d="M87.5011 99.2764L107.011 117.21L104.6 119.832L85.0908 101.898L78.4052 109.172L76.1264 107.077L91.908 89.9085L94.1867 92.0032L87.5011 99.2764Z" fill="black"/>
<path d="M125.281 99.8496L122.471 102.039L104.28 78.6948L112.775 72.0751C114.938 70.3898 117.048 69.6949 119.106 69.9905C121.164 70.286 123.018 71.4929 124.669 73.611C126.146 75.5062 126.837 77.4046 126.742 79.3062C126.647 81.2078 125.732 82.9775 123.998 84.6153L137.822 90.0764L134.679 92.5262L121.227 86.9904L117.514 89.8833L125.281 99.8496ZM121.282 83.1303C122.464 82.2095 123.152 81.2073 123.347 80.1237C123.547 79.0005 123.221 77.8926 122.37 76.8001L121.015 75.061C120.163 73.9685 119.177 73.393 118.057 73.3346C116.941 73.2364 115.792 73.6478 114.611 74.5686L108.992 78.9471L115.664 87.5088L121.282 83.1303Z" fill="black"/>
<path d="M148.462 83.1553L146.987 80.4338L154.443 76.3946L143.073 55.4056L142.812 55.547L139.563 65.2155L136.665 64.2293L140.068 54.0434L144.952 51.3977L157.575 74.6981L164.435 70.9819L165.909 73.7034L148.462 83.1553Z" fill="black"/>
<path d="M183.729 66.5333L165.811 41.3969L169.38 40.1706L184.804 62.3533L185.004 62.2844L183.535 35.3066L186.983 34.1216L188.301 64.9625L183.729 66.5333Z" fill="black"/>
<path d="M208.52 59.1942L203.644 30.0035L221.627 27L222.137 30.0529L207.667 32.4697L209.308 42.2975L223.276 39.9645L223.786 43.0174L209.818 45.3503L211.523 55.5545L225.992 53.1378L226.502 56.1907L208.52 59.1942Z" fill="black"/>
<path d="M274.537 44.9685L275.096 41.6229L294.818 34.2131L294.239 37.6842L277.988 43.6105L277.932 43.9451L291.375 54.8306L290.781 58.3853L274.537 44.9685Z" fill="black"/>
<path d="M302.686 68.0435L329.013 36.8302L331.9 37.8223L305.573 69.0355L302.686 68.0435Z" fill="black"/>
<path d="M336.601 70.2752L353.895 69.9515L354.056 69.6533L344.881 54.9901L346.598 51.8213L357.6 69.7886L355.984 72.771L334.924 73.3695L336.601 70.2752Z" fill="black"/>
<path d="M415.774 106.195L415.544 105.945L400.12 111.658L407.108 96.7678L406.879 96.5181L389.055 112.902L386.845 110.499L408.634 90.4704L411.733 93.8417L405.648 106.519L405.82 106.706L418.964 101.708L421.948 104.954L400.159 124.983L397.95 122.579L415.774 106.195Z" fill="black"/>
<path d="M417.581 149.619L423.283 142.915L417.608 134.214L409.174 136.727L407.16 133.637L436.906 125.072L439.476 129.015L419.642 152.78L417.581 149.619ZM435.111 129.229L434.903 128.909L420.664 133.233L425.412 140.514L435.111 129.229Z" fill="black"/>
<path d="M452.443 151.746L455.756 159.321C457.206 162.635 457.149 165.607 455.583 168.235C454.018 170.864 450.995 173.158 446.515 175.118C442.035 177.077 438.298 177.74 435.306 177.105C432.313 176.471 430.092 174.496 428.642 171.181L425.328 163.606L452.443 151.746ZM431.41 169.785C432.361 171.961 433.826 173.264 435.804 173.694C437.793 174.151 440.16 173.779 442.905 172.578L447.1 170.743C449.846 169.542 451.726 168.056 452.74 166.286C453.767 164.541 453.804 162.581 452.853 160.406L451.034 156.249L429.591 165.629L431.41 169.785Z" fill="black"/>
<path d="M437.173 193.467L465.871 186.235L470.326 203.915L467.324 204.671L463.74 190.445L454.078 192.88L457.538 206.612L454.537 207.369L451.076 193.636L441.044 196.164L444.629 210.39L441.628 211.146L437.173 193.467Z" fill="black"/>
<path d="M475 259.78L474.156 269.793C473.942 272.328 473.084 274.256 471.583 275.576C470.082 276.896 468.176 277.459 465.866 277.264C464.092 277.114 462.735 276.56 461.794 275.601C460.851 274.671 460.226 273.512 459.917 272.124L459.791 272.113C459.256 273.742 458.395 275.045 457.206 276.023C456.045 277.003 454.437 277.406 452.381 277.233C451.198 277.133 450.102 276.842 449.093 276.36C448.084 275.878 447.23 275.238 446.531 274.442C445.83 273.674 445.296 272.777 444.928 271.754C444.587 270.76 444.463 269.7 444.558 268.574L445.51 257.293L475 259.78ZM447.732 267.778C447.594 269.411 447.852 270.724 448.506 271.715C449.16 272.706 450.247 273.266 451.768 273.394L453.501 273.54C454.993 273.666 456.145 273.295 456.956 272.428C457.795 271.562 458.283 270.313 458.421 268.679L458.984 262.004L448.295 261.102L447.732 267.778ZM461.386 268.333C461.26 269.826 461.485 271.022 462.062 271.922C462.667 272.824 463.645 273.332 464.997 273.446L466.645 273.585C467.997 273.699 469.046 273.362 469.794 272.574C470.541 271.786 470.977 270.646 471.103 269.153L471.616 263.069L461.899 262.249L461.386 268.333Z" fill="black"/>
<path d="M439.916 296.389L451.173 299.259L471.118 293.798L470.112 297.742L461.587 299.945L454.164 301.772L454.122 301.936L459.744 307.176L466.174 313.191L465.189 317.053L450.293 302.71L439.036 299.84L439.916 296.389Z" fill="black"/>
<path d="M413.294 356.743C414.751 354.522 416.347 352.965 418.081 352.074C419.838 351.199 421.658 350.719 423.539 350.635L423.892 353.96C422.051 354.138 420.487 354.565 419.198 355.241C417.894 355.941 416.753 357.035 415.777 358.524C414.598 360.32 414.112 361.962 414.319 363.45C414.526 364.938 415.374 366.171 416.863 367.148C418.069 367.939 419.227 368.208 420.339 367.957C421.474 367.721 422.741 366.846 424.141 365.33L426.416 362.867C427.42 361.801 428.405 360.994 429.373 360.446C430.326 359.922 431.261 359.605 432.177 359.496C433.117 359.403 434.011 359.483 434.86 359.735C435.732 360.003 436.558 360.393 437.338 360.905C439.607 362.393 440.832 364.262 441.014 366.511C441.195 368.759 440.456 371.148 438.797 373.677C437.494 375.662 436.07 377.111 434.525 378.024C432.964 378.961 431.309 379.448 429.561 379.484L429.125 376.206C430.473 376.11 431.748 375.764 432.951 375.167C434.154 374.57 435.26 373.503 436.268 371.967C437.368 370.289 437.859 368.768 437.739 367.405C437.619 366.042 436.85 364.895 435.432 363.965C434.321 363.236 433.194 362.97 432.051 363.167C430.916 363.402 429.621 364.294 428.167 365.841L425.962 368.198C424.958 369.264 423.972 370.07 423.004 370.619C422.036 371.167 421.094 371.495 420.177 371.604C419.245 371.736 418.343 371.668 417.471 371.4C416.599 371.132 415.761 370.735 414.957 370.208C412.665 368.704 411.365 366.769 411.057 364.404C410.734 362.062 411.48 359.508 413.294 356.743Z" fill="black"/>
<path d="M412.105 401.891L392.645 383.904L395.062 381.288L414.522 399.276L421.228 392.021L423.501 394.122L407.672 411.247L405.399 409.146L412.105 401.891Z" fill="black"/>
<path d="M374.327 401.213L377.142 399.032L395.269 422.426L386.756 429.022C384.588 430.702 382.476 431.391 380.419 431.089C378.362 430.788 376.511 429.576 374.866 427.453C373.394 425.554 372.709 423.654 372.809 421.753C372.909 419.851 373.828 418.084 375.567 416.451L361.758 410.952L364.909 408.511L378.345 414.084L382.066 411.201L374.327 401.213ZM378.279 417.944C377.095 418.861 376.403 419.861 376.206 420.944C376.003 422.067 376.325 423.176 377.174 424.271L378.524 426.014C379.372 427.109 380.357 427.687 381.477 427.748C382.593 427.85 383.743 427.441 384.927 426.524L390.558 422.161L383.909 413.581L378.279 417.944Z" fill="black"/>
<path d="M351.1 417.843L352.566 420.569L345.099 424.587L356.411 445.608L356.673 445.467L359.949 435.808L362.843 436.802L359.412 446.978L354.521 449.611L341.963 426.275L335.093 429.972L333.626 427.247L351.1 417.843Z" fill="black"/>
<path d="M315.786 434.367L333.634 459.553L330.062 460.77L314.7 438.544L314.499 438.613L315.894 465.594L312.442 466.77L311.21 435.926L315.786 434.367Z" fill="black"/>
<path d="M290.975 441.638L295.77 470.842L277.779 473.795L277.277 470.741L291.754 468.365L290.14 458.532L276.165 460.826L275.664 457.772L289.638 455.478L287.962 445.269L273.486 447.646L272.984 444.591L290.975 441.638Z" fill="black"/>
</svg>
