<svg width="100" height="100" viewBox="0 0 100 100" fill="none" xmlns="http://www.w3.org/2000/svg">
<path d="M100 50C100 77.6142 77.6142 100 50 100C22.3858 100 0 77.6142 0 50C0 22.3858 22.3858 0 50 0C77.6142 0 100 22.3858 100 50Z" fill="#5865F2"/>
<path d="M74.258 27.4229C69.7964 25.3757 65.012 23.8675 60.0097 23.0036C59.9186 22.987 59.8276 23.0286 59.7807 23.1119C59.1654 24.2063 58.4838 25.634 58.0065 26.7562C52.6262 25.9507 47.2735 25.9507 42.0034 26.7562C41.5261 25.6091 40.8197 24.2063 40.2017 23.1119C40.1547 23.0314 40.0637 22.9897 39.9726 23.0036C34.9731 23.8647 30.1887 25.373 25.7244 27.4229C25.6857 27.4395 25.6526 27.4673 25.6306 27.5034C16.5557 41.0611 14.0697 54.2856 15.2893 67.3461C15.2948 67.41 15.3307 67.4712 15.3803 67.51C21.3677 71.907 27.1675 74.5764 32.8596 76.3457C32.9507 76.3735 33.0472 76.3402 33.1052 76.2651C34.4516 74.4264 35.6519 72.4876 36.681 70.4487C36.7417 70.3293 36.6837 70.1877 36.5596 70.1404C34.6558 69.4182 32.843 68.5377 31.0992 67.5378C30.9613 67.4573 30.9502 67.26 31.0771 67.1655C31.4441 66.8905 31.8111 66.6044 32.1615 66.3156C32.2249 66.2628 32.3133 66.2517 32.3878 66.285C43.8437 71.5154 56.2462 71.5154 67.5669 66.285C67.6415 66.2489 67.7298 66.2601 67.796 66.3128C68.1465 66.6017 68.5134 66.8905 68.8831 67.1655C69.01 67.26 69.0017 67.4573 68.8638 67.5378C67.12 68.5571 65.3072 69.4182 63.4007 70.1377C63.2765 70.1849 63.2213 70.3293 63.2821 70.4487C64.3332 72.4847 65.5335 74.4235 66.8551 76.2624C66.9103 76.3402 67.0096 76.3735 67.1007 76.3457C72.8204 74.5764 78.6201 71.907 84.6075 67.51C84.66 67.4712 84.6931 67.4128 84.6986 67.3489C86.1581 52.2495 82.2539 39.1335 74.349 27.5062C74.3296 27.4673 74.2966 27.4395 74.258 27.4229ZM38.3917 59.3936C34.9427 59.3936 32.1008 56.2272 32.1008 52.3384C32.1008 48.4497 34.8876 45.2832 38.3917 45.2832C41.9234 45.2832 44.7378 48.4775 44.6826 52.3384C44.6826 56.2272 41.8958 59.3936 38.3917 59.3936ZM61.6514 59.3936C58.2024 59.3936 55.3605 56.2272 55.3605 52.3384C55.3605 48.4497 58.1472 45.2832 61.6514 45.2832C65.1831 45.2832 67.9974 48.4775 67.9423 52.3384C67.9423 56.2272 65.1831 59.3936 61.6514 59.3936Z" fill="white"/>
</svg>
